<mxfile host="app.diagrams.net" modified="2021-11-23T06:58:03.360Z" agent="5.0 (Windows NT 10.0; Win64; x64) AppleWebKit/537.36 (KHTML, like Gecko) Chrome/94.0.4606.71 Safari/537.36" etag="Oy7UaO0AtiLGeyL6igFd" version="15.7.2" type="github">
  <diagram id="Wa5D1R9OH382YsMJsBRN" name="Page-1">
    <mxGraphModel dx="1038" dy="547" grid="1" gridSize="10" guides="1" tooltips="1" connect="1" arrows="1" fold="1" page="1" pageScale="1" pageWidth="827" pageHeight="1169" math="0" shadow="0">
      <root>
        <mxCell id="0" />
        <mxCell id="1" parent="0" />
        <mxCell id="JUvynKjw1yb-TWxYh79n-1" value="&lt;font style=&quot;font-size: 24px&quot;&gt;&lt;b&gt;Encoder&lt;/b&gt;&lt;/font&gt;" style="rounded=1;whiteSpace=wrap;html=1;fillColor=#ffff88;strokeColor=#36393d;" vertex="1" parent="1">
          <mxGeometry x="40" y="220" width="230" height="60" as="geometry" />
        </mxCell>
        <mxCell id="JUvynKjw1yb-TWxYh79n-2" value="&lt;font style=&quot;font-size: 24px&quot;&gt;&lt;b&gt;Decoder&lt;/b&gt;&lt;/font&gt;" style="rounded=1;whiteSpace=wrap;html=1;fillColor=#e1d5e7;strokeColor=#9673a6;" vertex="1" parent="1">
          <mxGeometry x="580" y="220" width="230" height="60" as="geometry" />
        </mxCell>
        <mxCell id="JUvynKjw1yb-TWxYh79n-3" value="&lt;font style=&quot;font-size: 18px&quot;&gt;&lt;b&gt;语义编码 c&lt;/b&gt;&lt;/font&gt;" style="rounded=0;whiteSpace=wrap;html=1;fillColor=#cce5ff;strokeColor=#36393d;" vertex="1" parent="1">
          <mxGeometry x="380" y="230" width="100" height="40" as="geometry" />
        </mxCell>
        <mxCell id="JUvynKjw1yb-TWxYh79n-4" value="&lt;font style=&quot;font-size: 18px&quot;&gt;&lt;b&gt;X1&lt;/b&gt;&lt;/font&gt;" style="ellipse;whiteSpace=wrap;html=1;aspect=fixed;fontSize=24;fillColor=#ffff88;strokeColor=#36393d;" vertex="1" parent="1">
          <mxGeometry x="40" y="320" width="40" height="40" as="geometry" />
        </mxCell>
        <mxCell id="JUvynKjw1yb-TWxYh79n-5" value="&lt;font style=&quot;font-size: 18px&quot;&gt;&lt;b&gt;X2&lt;/b&gt;&lt;/font&gt;" style="ellipse;whiteSpace=wrap;html=1;aspect=fixed;fontSize=24;fillColor=#ffff88;strokeColor=#36393d;" vertex="1" parent="1">
          <mxGeometry x="100" y="320" width="40" height="40" as="geometry" />
        </mxCell>
        <mxCell id="JUvynKjw1yb-TWxYh79n-6" value="&lt;font style=&quot;font-size: 18px&quot;&gt;&lt;b&gt;X3&lt;/b&gt;&lt;/font&gt;" style="ellipse;whiteSpace=wrap;html=1;aspect=fixed;fontSize=24;fillColor=#ffff88;strokeColor=#36393d;" vertex="1" parent="1">
          <mxGeometry x="170" y="320" width="40" height="40" as="geometry" />
        </mxCell>
        <mxCell id="JUvynKjw1yb-TWxYh79n-7" value="&lt;font style=&quot;font-size: 18px&quot;&gt;&lt;b&gt;X4&lt;/b&gt;&lt;/font&gt;" style="ellipse;whiteSpace=wrap;html=1;aspect=fixed;fontSize=24;fillColor=#ffff88;strokeColor=#36393d;" vertex="1" parent="1">
          <mxGeometry x="230" y="320" width="40" height="40" as="geometry" />
        </mxCell>
        <mxCell id="JUvynKjw1yb-TWxYh79n-8" value="&lt;font style=&quot;font-size: 18px&quot;&gt;&lt;b&gt;Y1&lt;/b&gt;&lt;/font&gt;" style="ellipse;whiteSpace=wrap;html=1;aspect=fixed;fontSize=24;fillColor=#e1d5e7;strokeColor=#9673a6;" vertex="1" parent="1">
          <mxGeometry x="580" y="138" width="40" height="40" as="geometry" />
        </mxCell>
        <mxCell id="JUvynKjw1yb-TWxYh79n-13" value="" style="endArrow=classic;html=1;rounded=0;fontSize=18;exitX=0.5;exitY=0;exitDx=0;exitDy=0;" edge="1" parent="1" source="JUvynKjw1yb-TWxYh79n-4">
          <mxGeometry width="50" height="50" relative="1" as="geometry">
            <mxPoint x="60" y="310" as="sourcePoint" />
            <mxPoint x="60" y="280" as="targetPoint" />
          </mxGeometry>
        </mxCell>
        <mxCell id="JUvynKjw1yb-TWxYh79n-14" value="" style="endArrow=classic;html=1;rounded=0;fontSize=18;exitX=0.5;exitY=0;exitDx=0;exitDy=0;" edge="1" parent="1">
          <mxGeometry width="50" height="50" relative="1" as="geometry">
            <mxPoint x="119" y="320" as="sourcePoint" />
            <mxPoint x="119" y="280" as="targetPoint" />
          </mxGeometry>
        </mxCell>
        <mxCell id="JUvynKjw1yb-TWxYh79n-16" value="" style="endArrow=classic;html=1;rounded=0;fontSize=18;exitX=0.5;exitY=0;exitDx=0;exitDy=0;" edge="1" parent="1">
          <mxGeometry width="50" height="50" relative="1" as="geometry">
            <mxPoint x="190" y="320" as="sourcePoint" />
            <mxPoint x="190" y="280" as="targetPoint" />
          </mxGeometry>
        </mxCell>
        <mxCell id="JUvynKjw1yb-TWxYh79n-17" value="" style="endArrow=classic;html=1;rounded=0;fontSize=18;exitX=0.5;exitY=0;exitDx=0;exitDy=0;" edge="1" parent="1">
          <mxGeometry width="50" height="50" relative="1" as="geometry">
            <mxPoint x="250" y="319" as="sourcePoint" />
            <mxPoint x="250" y="279" as="targetPoint" />
          </mxGeometry>
        </mxCell>
        <mxCell id="JUvynKjw1yb-TWxYh79n-26" value="" style="endArrow=classic;html=1;rounded=0;fontSize=18;" edge="1" parent="1">
          <mxGeometry width="50" height="50" relative="1" as="geometry">
            <mxPoint x="601" y="219" as="sourcePoint" />
            <mxPoint x="601" y="179" as="targetPoint" />
          </mxGeometry>
        </mxCell>
        <mxCell id="JUvynKjw1yb-TWxYh79n-35" value="&lt;font style=&quot;font-size: 18px&quot;&gt;&lt;b&gt;Y3&lt;/b&gt;&lt;/font&gt;" style="ellipse;whiteSpace=wrap;html=1;aspect=fixed;fontSize=24;fillColor=#e1d5e7;strokeColor=#9673a6;" vertex="1" parent="1">
          <mxGeometry x="770" y="138" width="40" height="40" as="geometry" />
        </mxCell>
        <mxCell id="JUvynKjw1yb-TWxYh79n-36" value="" style="endArrow=classic;html=1;rounded=0;fontSize=18;" edge="1" parent="1">
          <mxGeometry width="50" height="50" relative="1" as="geometry">
            <mxPoint x="791" y="219" as="sourcePoint" />
            <mxPoint x="791" y="179" as="targetPoint" />
          </mxGeometry>
        </mxCell>
        <mxCell id="JUvynKjw1yb-TWxYh79n-37" value="&lt;font style=&quot;font-size: 18px&quot;&gt;&lt;b&gt;Y2&lt;/b&gt;&lt;/font&gt;" style="ellipse;whiteSpace=wrap;html=1;aspect=fixed;fontSize=24;fillColor=#e1d5e7;strokeColor=#9673a6;" vertex="1" parent="1">
          <mxGeometry x="675" y="138" width="40" height="40" as="geometry" />
        </mxCell>
        <mxCell id="JUvynKjw1yb-TWxYh79n-38" value="" style="endArrow=classic;html=1;rounded=0;fontSize=18;" edge="1" parent="1">
          <mxGeometry width="50" height="50" relative="1" as="geometry">
            <mxPoint x="696" y="219" as="sourcePoint" />
            <mxPoint x="696" y="179" as="targetPoint" />
          </mxGeometry>
        </mxCell>
        <mxCell id="JUvynKjw1yb-TWxYh79n-39" value="" style="endArrow=classic;html=1;rounded=0;fontSize=18;exitX=1;exitY=0.5;exitDx=0;exitDy=0;entryX=0;entryY=0.5;entryDx=0;entryDy=0;" edge="1" parent="1" source="JUvynKjw1yb-TWxYh79n-1" target="JUvynKjw1yb-TWxYh79n-3">
          <mxGeometry width="50" height="50" relative="1" as="geometry">
            <mxPoint x="400" y="290" as="sourcePoint" />
            <mxPoint x="450" y="240" as="targetPoint" />
          </mxGeometry>
        </mxCell>
        <mxCell id="JUvynKjw1yb-TWxYh79n-40" value="" style="endArrow=classic;html=1;rounded=0;fontSize=18;entryX=0;entryY=0.5;entryDx=0;entryDy=0;" edge="1" parent="1">
          <mxGeometry width="50" height="50" relative="1" as="geometry">
            <mxPoint x="480" y="250" as="sourcePoint" />
            <mxPoint x="580" y="249.5" as="targetPoint" />
          </mxGeometry>
        </mxCell>
      </root>
    </mxGraphModel>
  </diagram>
</mxfile>
